<?xml version="1.0" standalone="no"?>
<!DOCTYPE svg PUBLIC "-//W3C//DTD SVG 20010904//EN"
 "http://www.w3.org/TR/2001/REC-SVG-20010904/DTD/svg10.dtd">
<svg version="1.0" xmlns="http://www.w3.org/2000/svg"
 width="300.000000pt" height="300.000000pt" viewBox="0 0 300.000000 300.000000"
 preserveAspectRatio="xMidYMid meet">
<metadata>
Created by potrace 1.11, written by Peter Selinger 2001-2013
</metadata>
<g transform="translate(0.000000,300.000000) scale(0.100000,-0.100000)"
fill="#000000" stroke="none">
<path d="M1452 2752 c-92 -26 -167 -111 -193 -220 -5 -20 -12 -82 -15 -137 -4
-55 -10 -102 -15 -105 -4 -3 -34 -5 -66 -4 -53 1 -72 -6 -73 -28 0 -5 33 -8
74 -8 l74 0 0 -377 c-1 -208 -5 -391 -9 -408 -10 -35 -35 -53 -86 -61 -45 -7
-47 -9 -40 -28 4 -11 19 -14 56 -11 28 2 51 0 51 -3 0 -4 -25 -54 -55 -112
-112 -215 -223 -447 -244 -509 -21 -62 -39 -97 -86 -176 -26 -43 -31 -78 -15
-119 12 -31 34 -33 58 -5 9 11 29 27 44 35 16 8 59 60 97 117 68 101 117 154
196 214 43 32 128 83 138 83 18 0 2 -46 -41 -122 -26 -46 -72 -128 -102 -183
-30 -55 -65 -118 -78 -140 -12 -22 -30 -56 -38 -75 -9 -19 -31 -66 -50 -103
-27 -51 -35 -79 -33 -110 9 -158 177 -188 292 -54 24 29 117 144 206 257 197
248 245 308 239 295 -2 -5 -12 -27 -22 -48 -21 -48 -11 -86 28 -105 40 -20 66
2 121 105 49 91 90 143 111 143 23 0 23 -15 -2 -85 -24 -68 -24 -70 -6 -95 27
-37 60 -51 88 -38 12 6 60 58 106 116 113 143 308 342 336 342 27 0 27 -1 3
-53 -11 -23 -33 -78 -51 -121 -17 -43 -67 -151 -110 -240 -44 -89 -81 -174
-83 -190 -7 -60 41 -118 98 -118 47 0 69 16 196 141 59 58 158 156 221 216
110 106 143 154 121 176 -11 11 -90 -42 -171 -115 -34 -31 -66 -56 -70 -56 -5
0 -30 -21 -58 -47 -51 -50 -110 -97 -157 -126 -42 -27 -44 -2 -7 79 18 38 51
114 75 169 39 90 81 181 150 330 13 28 27 68 30 90 6 37 5 42 -20 53 -14 7
-35 12 -47 12 -31 0 -164 -95 -238 -170 -79 -81 -120 -107 -120 -76 0 8 -12
24 -26 35 -40 32 -101 28 -155 -9 -43 -29 -68 -37 -70 -22 -7 76 -18 92 -62
85 -37 -6 -53 -26 -87 -109 -35 -88 -201 -285 -440 -524 -242 -243 -270 -265
-270 -220 0 20 135 292 183 367 15 24 27 44 27 46 0 2 23 44 51 93 107 184
125 236 99 284 -5 10 -25 23 -42 29 -69 23 -139 -4 -272 -103 -48 -36 -93 -63
-98 -60 -27 17 25 137 176 411 l67 123 125 -4 c115 -3 124 -2 124 16 0 10 -6
18 -12 18 -78 3 -152 35 -163 70 -9 28 130 302 260 516 35 57 61 104 58 104
-3 0 0 7 7 15 10 12 9 20 -4 40 -16 24 -32 30 -66 25 -28 -4 -50 -33 -94 -124
-23 -50 -60 -120 -82 -156 -22 -36 -50 -86 -62 -112 -13 -27 -25 -48 -28 -48
-2 0 -4 117 -4 260 l0 260 94 0 c52 0 97 4 100 8 12 20 -16 28 -99 28 l-90 0
0 143 c-1 220 28 293 122 307 40 6 103 -9 103 -24 0 -3 -14 -17 -30 -31 -53
-45 -47 -126 11 -156 95 -50 178 40 129 140 -42 85 -164 122 -288 87z"/>
<path d="M236 2750 c-22 -4 -77 -6 -123 -5 -75 3 -83 1 -83 -15 0 -13 10 -20
39 -25 46 -8 76 -36 88 -85 15 -57 10 -1140 -5 -1167 -11 -19 -61 -54 -77 -53
-36 1 -45 -2 -45 -17 0 -17 16 -18 207 -17 172 1 208 3 208 15 0 8 -16 18 -39
24 -76 20 -79 32 -80 297 -1 266 5 331 38 402 51 109 129 155 253 147 35 -2
82 -48 94 -94 8 -28 12 -153 12 -365 0 -307 -1 -325 -20 -350 -12 -16 -36 -31
-59 -37 -22 -6 -39 -16 -39 -24 0 -11 37 -14 208 -15 187 -1 207 1 207 16 0
11 -12 18 -42 23 -50 8 -66 19 -80 55 -7 15 -12 146 -13 330 -2 359 -7 392
-69 455 -53 52 -110 69 -209 62 -117 -8 -196 -56 -254 -154 -14 -24 -26 -43
-26 -43 -1 0 -2 146 -1 325 l0 325 -25 -1 c-14 -1 -44 -5 -65 -9z"/>
</g>
</svg>
