<?xml version="1.0" standalone="no"?>
<!DOCTYPE svg PUBLIC "-//W3C//DTD SVG 20010904//EN"
 "http://www.w3.org/TR/2001/REC-SVG-20010904/DTD/svg10.dtd">
<svg version="1.0" xmlns="http://www.w3.org/2000/svg"
 width="300.000000pt" height="300.000000pt" viewBox="0 0 300.000000 300.000000"
 preserveAspectRatio="xMidYMid meet">
<metadata>
Created by potrace 1.11, written by Peter Selinger 2001-2013
</metadata>
<g transform="translate(0.000000,300.000000) scale(0.100000,-0.100000)"
fill="#000000" stroke="none">
<path d="M1287 2984 c-501 -77 -924 -388 -1138 -838 -62 -131 -106 -266 -124
-379 -3 -17 -10 -57 -15 -87 -15 -90 -5 -351 18 -465 128 -628 615 -1098 1247
-1201 81 -13 369 -13 450 1 330 54 606 195 836 424 211 212 348 466 412 766
30 142 31 427 2 580 -95 494 -449 920 -925 1110 -95 38 -203 69 -290 82 -19 3
-54 8 -77 13 -68 12 -301 9 -396 -6z m347 -69 c89 -8 92 -8 196 -31 327 -72
661 -303 852 -592 188 -282 273 -630 234 -953 -40 -328 -179 -613 -410 -844
-217 -216 -475 -349 -773 -400 -613 -104 -1225 210 -1508 774 -38 77 -109 280
-119 341 -3 19 -8 46 -10 60 -18 99 -24 287 -12 370 3 19 7 55 10 80 3 25 10
60 15 78 5 17 8 32 6 32 -9 0 78 237 111 301 224 445 674 752 1152 785 48 4
88 7 89 8 4 3 87 -1 167 -9z"/>
<path d="M1385 2745 c-5 -2 -27 -6 -47 -10 -34 -5 -37 -8 -33 -33 2 -15 7 -49
10 -75 l6 -48 52 4 c40 2 53 7 55 21 3 16 -1 17 -37 11 -37 -6 -41 -5 -41 14
0 17 6 21 35 21 25 0 35 4 35 15 0 12 -9 15 -35 13 -19 -1 -37 1 -41 4 -12 13
7 28 35 28 33 0 42 7 34 26 -5 14 -9 15 -28 9z"/>
<path d="M1656 2723 c-10 -37 -26 -137 -21 -141 11 -12 35 10 35 33 0 26 13
31 55 19 17 -4 20 -12 17 -40 -3 -26 -1 -34 12 -34 8 0 18 10 20 23 25 117 25
137 1 137 -8 0 -15 -12 -17 -27 -2 -19 -8 -28 -20 -27 -10 1 -27 2 -38 3 -16
1 -20 7 -18 32 3 35 -17 51 -26 22z"/>
<path d="M1113 2688 c-18 -6 -33 -15 -33 -20 0 -6 9 -41 21 -78 16 -53 24 -67
36 -63 10 4 13 14 9 34 -7 35 8 38 40 8 16 -15 27 -18 39 -12 14 8 14 11 -4
27 -15 14 -18 26 -14 53 5 28 2 39 -12 49 -22 16 -37 16 -82 2z m67 -43 c0
-16 -35 -29 -50 -20 -16 10 -12 33 8 37 24 6 42 -2 42 -17z"/>
<path d="M1897 2608 c-25 -29 -45 -57 -44 -63 1 -5 16 -10 32 -11 56 -1 65 -4
65 -23 0 -10 9 -21 20 -24 19 -5 20 0 20 78 0 66 -3 84 -16 89 -26 10 -30 8
-77 -46z m60 -15 c-2 -16 -9 -28 -15 -27 -7 1 -17 2 -24 3 -6 0 -1 12 12 26
30 31 32 31 27 -2z"/>
<path d="M953 2623 c-14 -5 38 -123 61 -138 28 -17 27 2 -3 67 -30 69 -38 78
-58 71z"/>
<path d="M2095 2581 c-3 -5 4 -16 15 -24 19 -13 19 -14 -11 -62 -27 -43 -32
-75 -11 -75 4 0 21 23 37 50 21 36 34 49 45 44 26 -10 32 -9 37 2 2 6 -18 25
-45 43 -53 34 -58 35 -67 22z"/>
<path d="M825 2550 c-4 -6 0 -22 9 -35 15 -23 14 -25 -13 -44 l-29 -21 -19 25
c-13 17 -22 22 -32 16 -12 -8 -7 -20 24 -66 21 -30 45 -61 52 -66 21 -18 28
19 8 41 -17 19 -17 20 6 39 31 26 46 26 54 1 7 -21 30 -27 40 -10 6 9 -74 129
-87 130 -4 0 -10 -5 -13 -10z"/>
<path d="M2242 2408 c-29 -29 -52 -55 -52 -59 0 -20 24 -19 46 2 l24 22 25
-23 24 -23 -19 -25 c-19 -23 -19 -42 0 -42 4 0 31 24 59 53 43 45 48 54 36 66
-12 12 -17 11 -33 -9 l-19 -24 -27 25 -27 25 20 23 c19 22 20 41 2 41 -4 0
-31 -23 -59 -52z"/>
<path d="M606 2369 c-34 -27 -36 -71 -2 -87 19 -8 30 -7 55 9 18 11 36 17 41
14 14 -9 1 -31 -26 -43 -32 -15 -33 -46 -1 -37 28 8 67 51 67 73 -1 46 -39 59
-86 31 -29 -18 -44 -17 -44 3 0 5 11 14 25 20 27 12 34 38 11 38 -7 0 -25 -9
-40 -21z"/>
<path d="M2489 2245 c-4 -3 -15 -7 -25 -9 -32 -6 -109 -28 -117 -33 -13 -8 13
-32 28 -27 16 7 57 -50 45 -62 -5 -5 -4 -16 4 -26 11 -15 18 -8 58 53 44 66
45 70 29 90 -9 11 -19 18 -22 14z m-9 -42 c0 -5 -7 -17 -15 -27 -12 -16 -17
-17 -31 -5 -15 12 -14 15 12 26 35 15 34 15 34 6z"/>
<path d="M483 2229 c-8 -8 -7 -22 3 -51 18 -52 18 -51 -11 -32 -23 15 -45 12
-45 -6 0 -4 15 -17 33 -28 17 -11 47 -30 65 -41 28 -18 33 -19 38 -6 4 9 -4
23 -17 35 -18 14 -20 20 -9 21 8 1 20 2 25 4 6 1 20 3 31 3 12 1 25 9 28 18 5
13 -2 15 -46 12 l-52 -3 -11 37 c-12 44 -18 51 -32 37z"/>
<path d="M976 2161 c-1 -4 -2 -141 -2 -306 l1 -300 146 -1 c95 -1 160 3 184
11 36 13 95 68 95 89 1 6 3 28 6 49 7 48 -26 120 -67 144 -34 20 -36 29 -9 38
58 18 83 141 41 208 -36 59 -74 70 -244 72 -81 0 -149 -1 -151 -4z m292 -80
c35 -19 56 -75 42 -115 -17 -51 -53 -66 -163 -66 l-95 0 0 93 c0 50 1 94 3 97
7 12 190 3 213 -9z m24 -280 c29 -26 33 -35 32 -76 -1 -36 -7 -52 -27 -73 -26
-25 -33 -27 -136 -29 l-109 -3 0 105 -1 105 104 0 c102 0 106 -1 137 -29z"/>
<path d="M1540 1859 l0 -307 38 2 37 2 3 137 c1 75 6 137 10 138 12 1 276 1
300 0 22 -1 22 -3 22 -141 l0 -140 38 3 37 2 0 305 0 305 -35 0 -35 -1 -3
-132 -3 -132 -164 1 -165 0 -1 82 c0 45 -1 104 -2 132 l-2 49 -37 1 -38 1 0
-307z"/>
<path d="M2569 2069 c-13 -12 -39 -33 -57 -48 -46 -39 -36 -64 21 -55 23 3 46
8 52 11 5 3 -7 -11 -27 -30 -51 -47 -48 -77 5 -68 4 1 24 4 45 6 72 10 82 14
75 31 -4 12 -16 15 -50 10 -24 -3 -49 -8 -56 -11 -6 -4 8 12 33 34 54 49 47
65 -23 52 -26 -4 -47 -6 -47 -2 1 3 18 18 40 33 26 18 38 33 34 43 -8 20 -16
19 -45 -6z"/>
<path d="M382 2023 c-15 -6 -55 -80 -50 -94 2 -6 33 -23 70 -38 57 -25 68 -26
73 -13 5 14 -10 31 -27 32 -5 0 -8 7 -8 15 0 10 10 15 30 15 20 0 33 7 41 21
11 21 10 22 -25 16 -30 -5 -36 -3 -36 12 0 14 -41 45 -53 40 -1 0 -8 -3 -15
-6z m33 -43 c7 -12 -3 -50 -13 -50 -4 0 -13 4 -21 9 -10 7 -11 13 -2 30 13 23
26 27 36 11z"/>
<path d="M283 1772 c-4 -26 -8 -51 -8 -57 0 -8 98 -34 136 -35 12 0 19 12 23
45 9 57 9 60 -6 60 -6 0 -16 -15 -20 -32 -5 -20 -15 -33 -24 -33 -13 0 -14 8
-9 40 5 32 4 40 -9 40 -9 0 -18 -13 -22 -35 -4 -21 -12 -35 -21 -35 -12 0 -13
8 -8 39 5 29 3 40 -9 44 -11 5 -17 -5 -23 -41z"/>
<path d="M2560 1778 c0 -8 9 -21 20 -31 21 -18 27 -56 10 -73 -6 -6 -8 -18 -5
-26 5 -14 18 -9 72 25 36 23 68 48 70 55 9 21 -15 39 -60 46 -23 3 -57 8 -74
12 -24 4 -33 1 -33 -8z m115 -48 c-3 -5 -14 -14 -24 -20 -15 -7 -20 -5 -24 10
-4 17 0 20 25 20 17 0 27 -4 23 -10z"/>
<path d="M279 1593 c-17 -4 -29 -43 -29 -94 0 -21 5 -29 18 -30 9 0 45 -2 80
-4 l62 -3 0 59 c0 53 -3 61 -22 68 -13 5 -31 5 -40 -1 -10 -5 -26 -5 -35 0
-10 5 -25 7 -34 5z m32 -45 c0 -7 2 -21 4 -30 2 -10 -3 -18 -10 -18 -19 0 -27
17 -20 40 7 22 25 27 26 8z m69 -19 c0 -24 -4 -30 -17 -27 -16 3 -19 12 -14
48 0 6 8 10 16 10 10 0 15 -10 15 -31z"/>
<path d="M2705 1570 c-23 -17 -53 -29 -71 -30 -27 0 -44 -14 -44 -34 0 -2 12
-2 28 -2 15 1 50 -11 78 -26 61 -33 64 -34 57 -10 -2 10 -18 27 -35 36 l-30
18 31 19 c18 11 31 27 31 39 0 24 3 25 -45 -10z"/>
<path d="M1780 1452 c-116 -16 -183 -80 -182 -174 1 -84 48 -121 216 -173 95
-28 146 -65 146 -105 0 -33 -25 -73 -57 -92 -59 -35 -208 -7 -252 46 -19 22
-33 19 -54 -10 -18 -24 -18 -26 -1 -45 9 -10 42 -31 72 -46 76 -37 204 -39
272 -6 77 39 113 118 90 202 -17 63 -63 95 -196 136 -125 39 -154 59 -154 104
0 103 178 129 276 39 21 -19 22 -19 43 8 28 36 27 40 -16 67 -60 38 -142 58
-203 49z"/>
<path d="M989 1440 c-12 -7 -14 -54 -14 -307 l0 -298 38 -2 c42 -1 40 -15 37
175 l-1 102 28 1 c112 3 296 -1 301 -6 4 -3 7 -66 7 -138 l0 -132 38 -2 c34
-1 37 1 38 25 3 146 -1 573 -5 581 -4 5 -19 8 -34 6 -15 -2 -29 -4 -32 -4 -3
-1 -5 -52 -5 -113 1 -62 -1 -121 -3 -131 -4 -16 -18 -17 -166 -15 l-161 3 -2
124 c-2 68 -5 126 -7 128 -8 9 -43 10 -57 3z"/>
<path d="M340 1205 c-16 -19 -9 -45 17 -62 19 -13 24 -12 42 6 13 13 18 27 14
38 -13 35 -51 44 -73 18z"/>
<path d="M2600 1205 c-17 -21 -4 -65 19 -65 34 0 51 12 51 34 0 42 -45 62 -70
31z"/>
<path d="M482 918 c-34 -22 -62 -44 -62 -49 0 -17 22 -20 44 -6 22 15 24 14
45 -13 l21 -29 -25 -17 c-26 -17 -34 -44 -12 -44 9 0 100 55 126 76 2 2 1 10
-3 19 -5 14 -8 14 -32 -2 -26 -16 -27 -16 -45 6 -24 29 -24 38 1 53 21 13 26
33 12 42 -5 3 -36 -14 -70 -36z"/>
<path d="M2433 920 c-28 -26 -37 -55 -23 -80 14 -26 43 -26 79 1 40 29 58 21
31 -14 -12 -15 -26 -25 -31 -22 -11 8 -11 -6 0 -24 17 -26 82 36 76 74 -8 51
-47 59 -93 20 -37 -31 -53 -15 -20 18 39 38 20 64 -19 27z"/>
<path d="M2314 768 c-50 -58 -50 -54 7 -108 29 -27 56 -50 59 -50 9 0 70 70
70 81 0 16 -26 10 -45 -11 -19 -21 -45 -27 -45 -10 0 6 11 22 24 35 17 17 20
27 13 34 -8 8 -19 3 -39 -16 -38 -36 -57 -19 -23 21 23 26 25 46 6 46 -4 0
-16 -10 -27 -22z"/>
<path d="M650 752 c-60 -18 -79 -94 -35 -137 51 -52 139 -16 137 56 -1 51 -57
95 -102 81z m64 -65 c13 -37 -19 -73 -58 -63 -38 9 -47 53 -16 78 32 26 62 19
74 -15z"/>
<path d="M2172 633 c-30 -15 -38 -27 -47 -72 -5 -26 45 -81 75 -81 35 0 79 29
86 56 10 39 -4 41 -36 5 -35 -38 -58 -37 -80 1 -19 35 -5 62 34 66 27 3 36 26
13 35 -8 3 -28 -2 -45 -10z"/>
<path d="M797 560 c-20 -33 -37 -64 -37 -69 0 -17 29 -20 35 -3 3 9 15 28 26
42 17 21 19 22 15 5 -11 -40 -17 -95 -11 -95 4 0 21 11 38 24 55 40 59 39 33
-3 -30 -47 -30 -47 -12 -54 10 -4 29 16 57 59 40 62 41 65 23 78 -20 15 -23
15 -73 -23 l-34 -25 7 34 c4 19 10 43 12 52 4 14 -20 38 -38 38 -2 0 -20 -27
-41 -60z"/>
<path d="M2013 533 c-19 -7 55 -146 74 -139 8 3 16 6 17 6 2 0 -13 31 -33 70
-20 38 -38 70 -41 69 -3 0 -11 -3 -17 -6z"/>
<path d="M1027 427 c-15 -39 -24 -73 -20 -77 15 -13 91 -39 97 -33 13 13 5 23
-29 37 -25 11 -33 19 -29 30 7 19 12 19 44 1 33 -19 40 -18 40 1 0 9 -13 21
-30 27 -31 12 -41 37 -14 37 8 0 25 -5 36 -11 16 -8 22 -8 29 2 10 17 14 14
-46 37 l-51 20 -27 -71z"/>
<path d="M1917 483 c-4 -3 -7 -30 -7 -60 0 -29 -4 -53 -8 -53 -5 0 -21 18 -38
40 -27 37 -59 50 -59 24 0 -6 22 -36 48 -66 55 -64 86 -69 88 -14 1 17 2 55 3
84 3 49 -7 65 -27 45z"/>
<path d="M1238 419 c-31 -17 -22 -57 17 -80 19 -12 35 -25 35 -30 0 -14 -33
-11 -57 6 -19 13 -22 13 -27 -1 -15 -38 74 -62 112 -31 23 19 10 59 -25 76
-38 19 -46 47 -10 37 36 -12 50 -12 54 0 4 12 -39 34 -65 34 -9 0 -25 -5 -34
-11z"/>
<path d="M1633 410 c-19 -8 -21 -13 -13 -42 5 -18 11 -50 13 -71 3 -21 7 -41
10 -44 12 -11 27 10 27 38 0 36 14 37 36 4 9 -14 25 -25 35 -25 24 0 24 12 -1
35 -17 15 -17 19 -5 32 51 50 -25 104 -102 73z m77 -39 c0 -26 -47 -35 -53
-10 -5 19 5 27 36 28 10 1 17 -6 17 -18z"/>
<path d="M1427 396 c-2 -6 -4 -41 -6 -78 -2 -60 0 -68 16 -69 10 0 35 -2 56
-3 29 -2 37 2 37 14 0 12 -10 17 -36 18 -45 2 -49 5 -30 25 9 9 25 12 41 9 22
-4 26 -1 23 14 -3 15 -10 18 -37 16 -27 -3 -32 -1 -29 15 3 14 11 17 35 15 29
-3 52 12 39 25 -11 11 -105 10 -109 -1z"/>
</g>
</svg>
